<svg width="67" height="16" viewBox="0 0 67 16" fill="none" xmlns="http://www.w3.org/2000/svg">
<path d="M15.4615 0V5.3316L23.1923 7.9974V2.6658L15.4615 0Z" fill="#9000FF"/>
<path d="M41.2308 15.9948L46.3846 0H41.2308L39.5128 5.3342L38.6538 7.9974L36.0769 15.9948H41.2308Z" fill="#9000FF"/>
<path d="M39.5128 5.3342L37.7957 0.005206H32.6419L34.359 5.3342L36.0769 5.3316L39.5128 5.3342Z" fill="#9000FF"/>
<path d="M61.8462 0.00520664L56.6923 16H51.5385L54.1154 8.0026L54.9744 5.3368L56.6923 0.00520664H61.8462Z" fill="#9000FF"/>
<path d="M46.3846 0V10.6684L51.5385 8.8912V8.0026V5.3368V0.00520664L46.3846 0Z" fill="#9000FF"/>
<path d="M53.2581 0L51.5385 5.3368H54.9744L56.6923 0.00520664L53.2581 0Z" fill="#9000FF"/>
<path d="M61.8462 5.3368L60.1282 10.6684H67V5.3368H61.8462Z" fill="#9000FF"/>
<path d="M15.4615 15.9948V10.6632V5.3316L10.3077 7.1088V10.6632V15.9948H15.4615Z" fill="#9000FF"/>
<path d="M5.15385 0L0 15.9948H5.15385H8.58974L10.3077 10.6632L6.8718 10.6632L7.73077 7.9974L10.3077 0H5.15385Z" fill="#9000FF"/>
<path d="M25.7692 0L23.1923 7.9974L20.6154 15.9948L25.7692 15.9948L29.2051 5.3316L30.9231 0H25.7692Z" fill="#9000FF"/>
<path d="M36.0769 10.6632L34.359 5.3342L29.2051 5.3316L30.9231 10.6632H36.0769Z" fill="#9000FF"/>
</svg>
